<mxfile host="app.diagrams.net" agent="Mozilla/5.0 (Windows NT 10.0; Win64; x64) AppleWebKit/537.36 (KHTML, like Gecko) Chrome/141.0.0.0 Safari/537.36 Edg/141.0.0.0" version="28.2.5">
  <diagram name="Diagrama Inicial" id="fPwNfsugbPQ89HM6Jz4Z">
    <mxGraphModel dx="1034" dy="570" grid="1" gridSize="10" guides="1" tooltips="1" connect="1" arrows="1" fold="1" page="1" pageScale="1" pageWidth="850" pageHeight="1100" math="0" shadow="0">
      <root>
        <mxCell id="0" />
        <mxCell id="1" parent="0" />
        <mxCell id="E8e41r2-CU6nll6W3EI2-2" value="Factura App" style="rounded=0;whiteSpace=wrap;html=1;fillColor=none;dashed=1;dashPattern=8 4 1 4;verticalAlign=top;fontStyle=3" vertex="1" parent="1">
          <mxGeometry x="190" y="80" width="370" height="270" as="geometry" />
        </mxCell>
        <mxCell id="upsip3ePRzMxqOlExqri-5" value="" style="edgeStyle=orthogonalEdgeStyle;rounded=0;orthogonalLoop=1;jettySize=auto;html=1;startArrow=classic;startFill=1;" parent="1" source="upsip3ePRzMxqOlExqri-1" target="upsip3ePRzMxqOlExqri-4" edge="1">
          <mxGeometry relative="1" as="geometry" />
        </mxCell>
        <mxCell id="upsip3ePRzMxqOlExqri-1" value="Web App UI" style="rounded=1;whiteSpace=wrap;html=1;fillColor=#dae8fc;strokeColor=#6c8ebf;" parent="1" vertex="1">
          <mxGeometry x="210" y="110" width="120" height="60" as="geometry" />
        </mxCell>
        <mxCell id="upsip3ePRzMxqOlExqri-2" value="Front End&lt;div&gt;[ Next.js / React ]&lt;/div&gt;" style="text;html=1;align=center;verticalAlign=middle;whiteSpace=wrap;rounded=0;fontStyle=2" parent="1" vertex="1">
          <mxGeometry x="210" y="170" width="120" height="30" as="geometry" />
        </mxCell>
        <mxCell id="upsip3ePRzMxqOlExqri-7" value="" style="group" parent="1" vertex="1" connectable="0">
          <mxGeometry x="410" y="110" width="120" height="90" as="geometry" />
        </mxCell>
        <mxCell id="upsip3ePRzMxqOlExqri-4" value="Back End&lt;div&gt;API REST / GraphQL&lt;/div&gt;" style="rounded=1;whiteSpace=wrap;html=1;fillColor=#d5e8d4;strokeColor=#82b366;" parent="upsip3ePRzMxqOlExqri-7" vertex="1">
          <mxGeometry width="120" height="60" as="geometry" />
        </mxCell>
        <mxCell id="upsip3ePRzMxqOlExqri-6" value="Python&lt;div&gt;FastAPI / Flask&lt;/div&gt;" style="text;html=1;align=center;verticalAlign=middle;whiteSpace=wrap;rounded=0;fontStyle=2" parent="upsip3ePRzMxqOlExqri-7" vertex="1">
          <mxGeometry y="60" width="120" height="30" as="geometry" />
        </mxCell>
        <mxCell id="upsip3ePRzMxqOlExqri-9" value="" style="edgeStyle=orthogonalEdgeStyle;rounded=0;orthogonalLoop=1;jettySize=auto;html=1;entryX=0.5;entryY=0;entryDx=0;entryDy=0;startArrow=classic;startFill=1;" parent="1" source="upsip3ePRzMxqOlExqri-6" target="upsip3ePRzMxqOlExqri-10" edge="1">
          <mxGeometry relative="1" as="geometry">
            <mxPoint x="470" y="265" as="targetPoint" />
          </mxGeometry>
        </mxCell>
        <mxCell id="upsip3ePRzMxqOlExqri-12" value="PAC API Externa" style="rounded=1;whiteSpace=wrap;html=1;fillColor=#e1d5e7;strokeColor=#9673a6;" parent="1" vertex="1">
          <mxGeometry x="610" y="110" width="120" height="60" as="geometry" />
        </mxCell>
        <mxCell id="upsip3ePRzMxqOlExqri-14" value="Facturama / Finkok" style="text;html=1;align=center;verticalAlign=middle;whiteSpace=wrap;rounded=0;fontStyle=2" parent="1" vertex="1">
          <mxGeometry x="610" y="170" width="120" height="30" as="geometry" />
        </mxCell>
        <mxCell id="E8e41r2-CU6nll6W3EI2-1" value="" style="group" vertex="1" connectable="0" parent="1">
          <mxGeometry x="410" y="250" width="120" height="90" as="geometry" />
        </mxCell>
        <mxCell id="upsip3ePRzMxqOlExqri-10" value="Base de Datos SQL" style="rounded=1;whiteSpace=wrap;html=1;fillColor=#f8cecc;strokeColor=#b85450;" parent="E8e41r2-CU6nll6W3EI2-1" vertex="1">
          <mxGeometry width="120" height="60" as="geometry" />
        </mxCell>
        <mxCell id="upsip3ePRzMxqOlExqri-11" value="PosgreSQL / MySQL" style="text;html=1;align=center;verticalAlign=middle;whiteSpace=wrap;rounded=0;fontStyle=2" parent="E8e41r2-CU6nll6W3EI2-1" vertex="1">
          <mxGeometry y="60" width="120" height="30" as="geometry" />
        </mxCell>
        <mxCell id="E8e41r2-CU6nll6W3EI2-3" value="" style="endArrow=classic;startArrow=classic;html=1;rounded=0;exitX=1;exitY=0.5;exitDx=0;exitDy=0;" edge="1" parent="1" source="upsip3ePRzMxqOlExqri-4" target="upsip3ePRzMxqOlExqri-12">
          <mxGeometry width="50" height="50" relative="1" as="geometry">
            <mxPoint x="400" y="320" as="sourcePoint" />
            <mxPoint x="450" y="270" as="targetPoint" />
          </mxGeometry>
        </mxCell>
      </root>
    </mxGraphModel>
  </diagram>
</mxfile>
